<svg viewBox="0 0 24 24" fill="none" xmlns="http://www.w3.org/2000/svg">
  <path
    d="M5 22C3.895 22 3 21.105 3 20V14.5C3 14.224 3.224 14 3.5 14H10.5C10.776 14 11 14.224 11 14.5V21.5C11 21.776 10.776 22 10.5 22H5ZM13 21.5C13 21.776 13.224 22 13.5 22H19C20.105 22 21 21.105 21 20V14.5C21 14.224 20.776 14 20.5 14H13.5C13.224 14 13 14.224 13 14.5V21.5Z"
    fill="currentColor" />
  <path
    d="M2 10C2 8.895 2.895 8 4 8H20C21.105 8 22 8.895 22 10V11.5C22 11.776 21.776 12 21.5 12H2.5C2.224 12 2 11.776 2 11.5V10Z"
    fill="currentColor" />
  <path
    d="M19 6C19 4.343 17.657 3 16 3H15.911C14.494 3 13.259 3.964 12.915 5.339L12 9H16C17.657 9 19 7.657 19 6Z"
    stroke="currentColor" stroke-width="2" />
  <path
    d="M5 6C5 4.343 6.343 3 8 3H8.089C9.506 3 10.741 3.964 11.085 5.339L12 9H8C6.343 9 5 7.657 5 6Z"
    stroke="currentColor" stroke-width="2" />
</svg>
  