<svg viewBox="0 0 24 24" fill="none" xmlns="http://www.w3.org/2000/svg">
  <path
    fill-rule="evenodd"
    clip-rule="evenodd"
    d="M18.6 1H5.4C2.9701 1 1 2.9701 1 5.4V18.6C1 21.0299 2.9701 23 5.4 23H13.65C13.9536 23 14.2 22.7536 14.2 22.45V19.7C14.2 16.6629 16.6629 14.2 19.7 14.2H22.45C22.7536 14.2 23 13.9536 23 13.65V5.4C23 2.9701 21.0299 1 18.6 1ZM22.67 16.4704C22.6854 16.4374 22.6612 16.4 22.6249 16.4H22.0892H19.7C17.8773 16.4 16.4 17.8773 16.4 19.7V22.0892V22.6249C16.4 22.6612 16.4374 22.6854 16.4704 22.67C16.7993 22.5105 17.104 22.296 17.3669 22.0331L22.0331 17.3669C22.296 17.104 22.5105 16.7993 22.67 16.4704ZM7.59883 8.14984C7.59883 9.06064 6.85963 9.79984 5.94883 9.79984C5.03803 9.79984 4.29883 9.06064 4.29883 8.14984C4.29883 7.23904 5.03803 6.49984 5.94883 6.49984C6.85963 6.49984 7.59883 7.23904 7.59883 8.14984ZM18.0488 9.79984C18.9596 9.79984 19.6988 9.06064 19.6988 8.14984C19.6988 7.23904 18.9596 6.49984 18.0488 6.49984C17.138 6.49984 16.3988 7.23904 16.3988 8.14984C16.3988 9.06064 17.138 9.79984 18.0488 9.79984ZM7.26993 11.0857C7.77483 10.748 8.45903 10.8833 8.79673 11.3882C9.48973 12.4233 10.6656 13.0998 11.9988 13.0998C13.332 13.0998 14.5079 12.4233 15.2009 11.3882C15.5386 10.8833 16.2217 10.748 16.7266 11.0857C17.2315 11.4234 17.3668 12.1065 17.0291 12.6114C15.9456 14.2295 14.0976 15.2998 11.9988 15.2998C9.90003 15.2998 8.05203 14.2295 6.96853 12.6114C6.63083 12.1065 6.76503 11.4234 7.26993 11.0857Z"
    fill="currentColor"
  />
</svg>
  